<?xml version="1.0" encoding="UTF-8" standalone="no"?>
<!-- Created with Inkscape (http://www.inkscape.org/) -->

<svg
   width="10.768379mm"
   height="18.979431mm"
   viewBox="0 0 10.768379 18.979431"
   version="1.1"
   id="svg5"
   xml:space="preserve"
   inkscape:export-filename="butmen.svg"
   inkscape:export-xdpi="117.93785"
   inkscape:export-ydpi="117.93785"
   xmlns:inkscape="http://www.inkscape.org/namespaces/inkscape"
   xmlns:sodipodi="http://sodipodi.sourceforge.net/DTD/sodipodi-0.dtd"
   xmlns="http://www.w3.org/2000/svg"
   xmlns:svg="http://www.w3.org/2000/svg"><sodipodi:namedview
     id="namedview7"
     pagecolor="#ffffff"
     bordercolor="#000000"
     borderopacity="0.25"
     inkscape:showpageshadow="2"
     inkscape:pageopacity="0.0"
     inkscape:pagecheckerboard="0"
     inkscape:deskcolor="#d1d1d1"
     inkscape:document-units="mm"
     showgrid="false" /><defs
     id="defs2"><clipPath
       clipPathUnits="userSpaceOnUse"
       id="clipPath5798"><path
         d="M -79.110404,-3775.2324 H 532.88963 V 951.12759 H -79.110404 Z"
         id="path5800"
         style="stroke-width:0.999998" /></clipPath><clipPath
       clipPathUnits="userSpaceOnUse"
       id="clipPath5802"><path
         d="m -166.26661,-3695.0068 h 612.00004 v 4726.36 h -612.00004 z"
         id="path5804"
         style="stroke-width:0.999998" /></clipPath><clipPath
       clipPathUnits="userSpaceOnUse"
       id="clipPath5806"><path
         d="m -165.15231,-3679.0781 h 612.00004 v 4726.36 h -612.00004 z"
         id="path5808"
         style="stroke-width:0.999998" /></clipPath><clipPath
       clipPathUnits="userSpaceOnUse"
       id="clipPath5810"><path
         d="m -210.9927,-3785.9082 h 612.00004 v 4726.36 H -210.9927 Z"
         id="path5812"
         style="stroke-width:0.999998" /></clipPath><clipPath
       clipPathUnits="userSpaceOnUse"
       id="clipPath5814"><path
         d="m -173.8848,-3566.6533 h 612.00004 v 4726.36 H -173.8848 Z"
         id="path5816"
         style="stroke-width:0.999998" /></clipPath><clipPath
       clipPathUnits="userSpaceOnUse"
       id="clipPath5818"><path
         d="m -219.5171,-3736.1738 h 612.00004 v 4726.36 H -219.5171 Z"
         id="path5820"
         style="stroke-width:0.999998" /></clipPath><clipPath
       clipPathUnits="userSpaceOnUse"
       id="clipPath5822"><path
         d="M -92.784707,-3820.7969 H 519.21533 v 4726.36 H -92.784707 Z"
         id="path5824"
         style="stroke-width:0.999998" /></clipPath><clipPath
       clipPathUnits="userSpaceOnUse"
       id="clipPath5826"><path
         d="m -171.74711,-3909.3135 h 612.00004 v 4726.36 h -612.00004 z"
         id="path5828"
         style="stroke-width:0.999998" /></clipPath><clipPath
       clipPathUnits="userSpaceOnUse"
       id="clipPath5830"><path
         d="m -187.4282,-3908.1797 h 612.00004 v 4726.36 H -187.4282 Z"
         id="path5832"
         style="stroke-width:0.999998" /></clipPath><clipPath
       clipPathUnits="userSpaceOnUse"
       id="clipPath5834"><path
         d="M -82.250511,-3954.7637 H 529.74953 v 4726.36 H -82.250511 Z"
         id="path5836"
         style="stroke-width:0.999998" /></clipPath><clipPath
       clipPathUnits="userSpaceOnUse"
       id="clipPath5838"><path
         d="M -298.104,-3917.0273 H 313.89604 V 809.33269 H -298.104 Z"
         id="path5840"
         style="stroke-width:0.999998" /></clipPath><clipPath
       clipPathUnits="userSpaceOnUse"
       id="clipPath5842"><path
         d="M -131.21,-3963.4131 H 480.79004 V 762.94692 H -131.21 Z"
         id="path5844"
         style="stroke-width:0.999998" /></clipPath></defs><g
     id="g20959"
     transform="translate(-83.125315,-148.337)"><g
       id="g1809"
       transform="matrix(0.04116583,0,0,-0.04116583,86.694458,150.64958)"
       clip-path="url(#clipPath5842)"><path
         d="M 0,0 -18.785,20.242 10.411,48.198 C 23.371,60.607 45.438,58.285 59.603,43.021 73.767,27.758 74.748,5.245 61.788,-7.164 L 32.555,-35.154 13.77,-14.912 Z"
         style="fill:#e60895;fill-opacity:1;fill-rule:nonzero;stroke:none"
         id="path1811" /></g><g
       id="g1813"
       transform="matrix(0.04116583,0,0,-0.04116583,93.564788,152.55909)"
       clip-path="url(#clipPath5838)"><path
         d="m 0,0 c -11.116,11.979 -29.748,12.54 -41.539,1.25 -11.79,-11.289 -12.339,-30.215 -1.222,-42.194 11.114,-11.976 29.745,-12.536 41.536,-1.247 C 10.566,-30.901 11.114,-11.976 0,0"
         style="fill:#e60895;fill-opacity:1;fill-rule:nonzero;stroke:none"
         id="path1815" /></g><g
       id="g1817"
       transform="matrix(0.04116583,0,0,-0.04116583,84.679,151.00564)"
       clip-path="url(#clipPath5834)"
       style="fill:#ffda27;fill-opacity:1"><path
         d="m 0,0 28.73,-30.96 c 1.208,-1.301 0.545,-6.638 -4.115,-11.099 -4.659,-4.462 -9.943,-4.819 -11.15,-3.518 l -28.731,30.96 -20.771,-19.889 28.73,-30.96 c 12.739,-13.726 35.843,-12.693 51.506,2.304 15.662,14.997 18.041,38.364 5.302,52.091 l -28.73,30.96 z"
         style="fill:#ffda27;fill-opacity:1;fill-rule:nonzero;stroke:none"
         id="path1819" /></g><g
       id="g1821"
       transform="matrix(0.04116583,0,0,-0.04116583,89.008727,152.9233)"
       clip-path="url(#clipPath5830)"><path
         d="m 0,0 27.929,26.742 c 1.518,1.453 4.121,1.164 5.801,-0.646 1.68,-1.811 1.811,-4.467 0.293,-5.92 l -45.068,-43.154 c -12.377,-11.851 -11.615,-33.167 1.7,-47.514 l 0.105,-0.112 c 5.088,-5.484 11.576,-9.402 18.45,-11.174 -0.151,-6.96 2.586,-13.942 7.678,-19.428 9.722,-10.477 24.95,-11.994 33.944,-3.382 l 8.949,8.568 -14.449,15.571 -8.748,-8.375 c -0.642,-0.07 -2.536,0.316 -4.37,2.292 -1.834,1.976 -2.101,3.92 -1.995,4.567 L 66.957,-46.787 52.404,-31.105 22.801,-59.45 c -3.772,-3.613 -11.61,-1.938 -16.76,3.571 -5.122,5.562 -6.306,13.607 -2.533,17.219 l 40.55,38.827 4.415,4.438 C 58.441,14.15 58.704,30.374 49.056,40.771 39.408,51.166 23.449,51.857 13.48,42.313 L -14.449,15.57 Z"
         style="fill:#665ec7;fill-opacity:1;fill-rule:nonzero;stroke:none"
         id="path1823" /></g><g
       id="g1825"
       transform="matrix(0.04116583,0,0,-0.04116583,88.363202,152.87663)"
       clip-path="url(#clipPath5826)"><path
         d="m 0,0 c -4.819,5.193 -12.896,5.437 -18.008,0.542 -5.112,-4.895 -5.349,-13.099 -0.53,-18.292 4.818,-5.192 12.895,-5.436 18.007,-0.541 C 4.58,-13.396 4.818,-5.191 0,0"
         style="fill:#e60895;fill-opacity:1;fill-rule:nonzero;stroke:none"
         id="path1827" /></g><g
       id="g1829"
       transform="matrix(0.04116583,0,0,-0.04116583,85.112649,156.52049)"
       clip-path="url(#clipPath5822)"><path
         d="M 0,0 -18.785,20.243 10.411,48.198 C 23.371,60.608 45.438,58.285 59.603,43.022 73.767,27.759 74.748,5.245 61.788,-7.164 L 32.555,-35.154 13.77,-14.911 Z"
         style="fill:#e60895;fill-opacity:1;fill-rule:nonzero;stroke:none"
         id="path1831" /></g><g
       id="g1833"
       transform="matrix(0.04116583,0,0,-0.04116583,90.329693,160.00407)"
       clip-path="url(#clipPath5818)"><path
         d="M 0,0 19.925,19.078 47.451,-10.585 C 59.67,-23.752 57.388,-46.167 42.364,-60.552 27.341,-74.937 5.178,-75.929 -7.041,-62.762 l -27.561,29.699 19.925,19.079 z"
         style="fill:#665ec7;fill-opacity:1;fill-rule:nonzero;stroke:none"
         id="path1835" /></g><g
       id="g1837"
       transform="matrix(0.04116583,0,0,-0.04116583,88.451202,166.98252)"
       clip-path="url(#clipPath5814)"
       style="fill:#ffffff;fill-opacity:1"><path
         d="m 0,0 c 11.791,11.29 12.339,30.216 1.223,42.194 -11.117,11.98 -29.749,12.54 -41.539,1.25 C -52.104,32.158 -52.652,13.231 -41.536,1.253 -30.419,-10.726 -11.788,-11.287 0,0"
         style="fill:#ffffff;fill-opacity:1;fill-rule:nonzero;stroke:none"
         id="path1839" /></g><g
       id="g1841"
       transform="matrix(0.04116583,0,0,-0.04116583,89.978779,157.95671)"
       clip-path="url(#clipPath5810)"
       style="fill:#ffda27;fill-opacity:1"><path
         d="m 0,0 -30.473,-29.179 c -1.281,-1.226 -6.534,-0.551 -10.927,4.183 -4.393,4.734 -4.746,10.1 -3.466,11.327 L -14.393,15.509 -33.976,36.612 -64.449,7.434 c -13.511,-12.937 -12.489,-36.406 2.278,-52.319 14.766,-15.913 37.771,-18.333 51.281,-5.396 l 30.473,29.177 z"
         style="fill:#ffda27;fill-opacity:1;fill-rule:nonzero;stroke:none"
         id="path1843" /></g><g
       id="g1845"
       transform="matrix(0.04116583,0,0,-0.04116583,88.091721,162.35446)"
       clip-path="url(#clipPath5806)"><path
         d="m 0,0 26.333,-28.375 c 1.431,-1.542 1.146,-4.186 -0.636,-5.893 -1.782,-1.706 -4.397,-1.838 -5.828,-0.295 L -22.622,11.224 C -34.292,23.799 -55.275,23.028 -69.397,9.507 L -69.509,9.4 c -5.396,-5.168 -9.252,-11.757 -10.995,-18.74 -6.853,0.155 -13.725,-2.624 -19.125,-7.795 -10.312,-9.874 -11.803,-25.342 -3.324,-34.479 l 8.438,-9.092 15.326,14.675 -8.248,8.886 c -0.067,0.653 0.312,2.577 2.257,4.439 1.945,1.863 3.858,2.134 4.495,2.026 l 34.638,-37.325 15.436,14.78 -27.91,30.076 c -3.557,3.833 -1.91,11.793 3.513,17.024 5.473,5.201 13.394,6.402 16.95,2.569 l 38.231,-41.197 4.37,-4.485 c 9.399,-10.128 25.371,-10.398 35.603,-0.6 10.233,9.798 10.911,26.009 1.512,36.137 L 15.326,14.675 Z"
         style="fill:#e60895;fill-opacity:1;fill-rule:nonzero;stroke:none"
         id="path1847" /></g><g
       id="g1849"
       transform="matrix(0.04116583,0,0,-0.04116583,88.137593,161.69874)"
       clip-path="url(#clipPath5802)"
       style="fill:#ffda27;fill-opacity:1"><path
         d="m 0,0 c 5.111,4.895 5.349,13.1 0.53,18.293 -4.819,5.192 -12.897,5.436 -18.008,0.541 C -22.588,13.941 -22.826,5.736 -18.007,0.543 -13.188,-4.65 -5.11,-4.893 0,0"
         style="fill:#ffda27;fill-opacity:1;fill-rule:nonzero;stroke:none"
         id="path1851" /></g><g
       id="g1853"
       transform="matrix(0.04116583,0,0,-0.04116583,84.549735,158.39619)"
       clip-path="url(#clipPath5798)"><path
         d="M 0,0 19.925,19.078 47.452,-10.584 C 59.67,-23.751 57.388,-46.166 42.365,-60.552 27.341,-74.937 5.178,-75.929 -7.041,-62.761 l -27.561,29.699 19.925,19.078 z"
         style="fill:#665ec7;fill-opacity:1;fill-rule:nonzero;stroke:none"
         id="path1855" /></g><path
       style="fill:#ffffff;fill-opacity:1;stroke:#f4ffff;stroke-width:0.480586;stroke-linecap:round;stroke-linejoin:round"
       d="m 330.8155,611.34241 c -1.15675,-0.70528 -1.2583,-2.45968 -0.18654,-3.22284 1.27224,-0.90591 3.00768,-0.0263 3.00642,1.52388 -10e-4,1.49856 -1.58426,2.45233 -2.81988,1.69896 z"
       id="path20926"
       transform="scale(0.26458333)" /><path
       style="fill:#ffffff;fill-opacity:1;stroke:#f4ffff;stroke-width:0.480586;stroke-linecap:round;stroke-linejoin:round"
       d="m 333.35041,605.78459 c -3.024,-0.99743 -5.11103,-4.18414 -4.63957,-7.08422 0.25186,-1.54927 0.65457,-2.10844 3.43162,-4.76485 1.3945,-1.33392 2.58193,-2.42531 2.63873,-2.42531 0.13362,0 2.87298,2.92584 2.87234,3.06789 -2.6e-4,0.0593 -1.0483,1.09932 -2.32896,2.31124 -2.12325,2.00928 -2.32885,2.24249 -2.33264,2.64578 -0.005,0.58296 0.52882,1.47451 1.0924,1.82282 0.89135,0.55088 1.08682,0.44259 3.66864,-2.03249 l 2.3263,-2.23013 1.4476,1.57286 c 0.79617,0.86507 1.43163,1.60741 1.41213,1.64963 -0.0195,0.0422 -1.1437,1.14111 -2.49821,2.44196 -2.97264,2.8549 -3.47801,3.16672 -5.23307,3.22896 -0.83116,0.0295 -1.30792,-0.0229 -1.85731,-0.20414 z"
       id="path20928"
       transform="scale(0.26458333)" /><path
       style="fill:#ffffff;fill-opacity:1;stroke:#f4ffff;stroke-width:0.480586;stroke-linecap:round;stroke-linejoin:round"
       d="m 320.85806,582.07123 c -0.36221,-0.12521 -0.89272,-0.40037 -1.1789,-0.61145 -0.5466,-0.40316 -5.11595,-5.25821 -5.06297,-5.37952 0.0169,-0.0386 0.70872,-0.72475 1.53742,-1.52467 l 1.50672,-1.4544 2.22425,2.39227 c 1.22333,1.31574 2.33731,2.42815 2.4755,2.47201 0.36015,0.1143 1.30903,-0.34371 1.71731,-0.82893 0.1918,-0.22794 0.41823,-0.64645 0.50319,-0.93002 0.14368,-0.47954 0.13161,-0.54033 -0.17245,-0.86908 -0.17982,-0.19442 -1.21464,-1.31198 -2.29962,-2.48347 l -1.97267,-2.12998 1.5235,-1.4345 c 0.83792,-0.78898 1.57006,-1.4345 1.62698,-1.4345 0.20572,0 4.68093,4.94134 5.04052,5.56553 0.52899,0.91824 0.73209,2.1929 0.53373,3.34964 -0.42448,2.47541 -2.45963,4.71676 -4.86416,5.35701 -0.91901,0.2447 -2.34205,0.21934 -3.13835,-0.0559 z"
       id="path20930"
       transform="scale(0.26458333)" /></g></svg>
